# xmcd CD database file
#
# Track frame offsets:
#	182
#	14185
#	29887
#	43492
#	59315
#	75072
#	87957
#	99602
#	114585
#	129970
#	140632
#	151940
#	169570
#	179515
#
# Disc length: 2578 seconds
#
# Revision: 1
# Processed by: cddbd v1.4PL0 Copyright (c) Steve Scherf et al.
# Submitted via: CDex 1.50Beta7
#
DISCID=bc0a100e
DTITLE=Benny Goodman - Master of Swings 1946
DYEAR=1946
DGENRE=Jazz
TTITLE0=Who's sorry Now
TTITLE1=I' always chasing rainbows
TTITLE2=Fly by Night
TTITLE3=Moonlight on the Ganges
TTITLE4=Inconito
TTITLE5=A string of pearls
TTITLE6=So in love
TTITLE7=Shishkabop
TTITLE8=fesh fish
TTITLE9=Do do do
TTITLE10=If I could be wih you
TTITLE11=Lover Man
TTITLE12=I'll see you in my dream
TTITLE13=you brought a new kind of love to me
EXTD=YEAR: 1946
EXTT0=
EXTT1=
EXTT2=
EXTT3=
EXTT4=
EXTT5=
EXTT6=
EXTT7=
EXTT8=
EXTT9=
EXTT10=
EXTT11=
EXTT12=
EXTT13=
PLAYORDER=
